# xmcd CD database file
#
# Track frame offsets:
#	150
#	18540
#	37022
#	57062
#	77717
#	99812
#	118375
#	137722
#	155577
#	171217
#
# Disc length: 2540 seconds
#
# Revision: 1
# Processed by: cddbd v1.5.2PL0 Copyright (c) Steve Scherf et al.
# Submitted via: CDex 1.70beta2
#
DISCID=7f09ea0a
DTITLE=ALI PROJECT - 月下の一群
DYEAR=1992
DGENRE=J-POP(J)
TTITLE0=メガロポリス・アリス - MEGALOPOLIS ALICE
TTITLE1=ビアンカ
TTITLE2=薔薇色翠星歌劇団
TTITLE3=マダム・ノワール - Madame Noir
TTITLE4=空宙舞踏会
TTITLE5=木漏れ陽のワルツ
TTITLE6=堕ちて候
TTITLE7=恋せよ乙女 - Love story of ZIPANG
TTITLE8=月光浴
TTITLE9=楽園喪失 - Paradise Lost
EXTD=YEAR: 1992
EXTT0=
EXTT1=
EXTT2=
EXTT3=
EXTT4=
EXTT5=
EXTT6=
EXTT7=
EXTT8=
EXTT9=
PLAYORDER=
